<mxfile host="Electron" modified="2023-06-04T21:22:57.746Z" agent="Mozilla/5.0 (X11; Linux x86_64) AppleWebKit/537.36 (KHTML, like Gecko) draw.io/21.2.8 Chrome/112.0.5615.165 Electron/24.2.0 Safari/537.36" etag="suMQq9uDuVvLn1HUgagg" version="21.2.8" type="device">
  <diagram id="C5RBs43oDa-KdzZeNtuy" name="Page-1">
    <mxGraphModel dx="462" dy="822" grid="1" gridSize="10" guides="1" tooltips="1" connect="1" arrows="1" fold="1" page="1" pageScale="1" pageWidth="827" pageHeight="1169" math="0" shadow="0">
      <root>
        <mxCell id="WIyWlLk6GJQsqaUBKTNV-0" />
        <mxCell id="WIyWlLk6GJQsqaUBKTNV-1" parent="WIyWlLk6GJQsqaUBKTNV-0" />
        <mxCell id="mQCUxDyd7xYWhINcA6dF-4" value="" style="edgeStyle=orthogonalEdgeStyle;rounded=0;orthogonalLoop=1;jettySize=auto;html=1;" edge="1" parent="WIyWlLk6GJQsqaUBKTNV-1" source="mQCUxDyd7xYWhINcA6dF-0" target="mQCUxDyd7xYWhINcA6dF-3">
          <mxGeometry relative="1" as="geometry" />
        </mxCell>
        <mxCell id="mQCUxDyd7xYWhINcA6dF-0" value="mult10 (x:int) -&amp;gt; int:" style="whiteSpace=wrap;html=1;fillColor=#fff2cc;strokeColor=#d6b656;" vertex="1" parent="WIyWlLk6GJQsqaUBKTNV-1">
          <mxGeometry x="319" y="70" width="190" height="110" as="geometry" />
        </mxCell>
        <mxCell id="mQCUxDyd7xYWhINcA6dF-6" value="" style="edgeStyle=orthogonalEdgeStyle;rounded=0;orthogonalLoop=1;jettySize=auto;html=1;" edge="1" parent="WIyWlLk6GJQsqaUBKTNV-1" source="mQCUxDyd7xYWhINcA6dF-3" target="mQCUxDyd7xYWhINcA6dF-5">
          <mxGeometry relative="1" as="geometry" />
        </mxCell>
        <mxCell id="mQCUxDyd7xYWhINcA6dF-3" value="result = 0" style="whiteSpace=wrap;html=1;fillColor=#d5e8d4;strokeColor=#82b366;" vertex="1" parent="WIyWlLk6GJQsqaUBKTNV-1">
          <mxGeometry x="354" y="242" width="120" height="60" as="geometry" />
        </mxCell>
        <mxCell id="mQCUxDyd7xYWhINcA6dF-8" value="" style="edgeStyle=orthogonalEdgeStyle;rounded=0;orthogonalLoop=1;jettySize=auto;html=1;" edge="1" parent="WIyWlLk6GJQsqaUBKTNV-1" source="mQCUxDyd7xYWhINcA6dF-5" target="mQCUxDyd7xYWhINcA6dF-7">
          <mxGeometry relative="1" as="geometry" />
        </mxCell>
        <mxCell id="mQCUxDyd7xYWhINcA6dF-5" value="count = 0" style="whiteSpace=wrap;html=1;fillColor=#d5e8d4;strokeColor=#82b366;" vertex="1" parent="WIyWlLk6GJQsqaUBKTNV-1">
          <mxGeometry x="354" y="382" width="120" height="60" as="geometry" />
        </mxCell>
        <mxCell id="mQCUxDyd7xYWhINcA6dF-12" value="" style="edgeStyle=orthogonalEdgeStyle;rounded=0;orthogonalLoop=1;jettySize=auto;html=1;" edge="1" parent="WIyWlLk6GJQsqaUBKTNV-1" source="mQCUxDyd7xYWhINcA6dF-7" target="mQCUxDyd7xYWhINcA6dF-11">
          <mxGeometry relative="1" as="geometry" />
        </mxCell>
        <mxCell id="mQCUxDyd7xYWhINcA6dF-19" style="edgeStyle=orthogonalEdgeStyle;rounded=0;orthogonalLoop=1;jettySize=auto;html=1;exitX=0;exitY=0.5;exitDx=0;exitDy=0;entryX=0.5;entryY=0;entryDx=0;entryDy=0;" edge="1" parent="WIyWlLk6GJQsqaUBKTNV-1" source="mQCUxDyd7xYWhINcA6dF-7" target="mQCUxDyd7xYWhINcA6dF-18">
          <mxGeometry relative="1" as="geometry" />
        </mxCell>
        <mxCell id="mQCUxDyd7xYWhINcA6dF-7" value="while ( count &amp;lt; 10 )" style="whiteSpace=wrap;html=1;fillColor=#d5e8d4;strokeColor=#82b366;" vertex="1" parent="WIyWlLk6GJQsqaUBKTNV-1">
          <mxGeometry x="354" y="522" width="120" height="60" as="geometry" />
        </mxCell>
        <mxCell id="mQCUxDyd7xYWhINcA6dF-15" value="" style="edgeStyle=orthogonalEdgeStyle;rounded=0;orthogonalLoop=1;jettySize=auto;html=1;" edge="1" parent="WIyWlLk6GJQsqaUBKTNV-1" source="mQCUxDyd7xYWhINcA6dF-11" target="mQCUxDyd7xYWhINcA6dF-14">
          <mxGeometry relative="1" as="geometry" />
        </mxCell>
        <mxCell id="mQCUxDyd7xYWhINcA6dF-11" value="result = result + x" style="whiteSpace=wrap;html=1;fillColor=#d5e8d4;strokeColor=#82b366;" vertex="1" parent="WIyWlLk6GJQsqaUBKTNV-1">
          <mxGeometry x="354" y="662" width="120" height="60" as="geometry" />
        </mxCell>
        <mxCell id="mQCUxDyd7xYWhINcA6dF-16" style="edgeStyle=orthogonalEdgeStyle;rounded=0;orthogonalLoop=1;jettySize=auto;html=1;exitX=1;exitY=0.5;exitDx=0;exitDy=0;entryX=1;entryY=0.5;entryDx=0;entryDy=0;" edge="1" parent="WIyWlLk6GJQsqaUBKTNV-1" source="mQCUxDyd7xYWhINcA6dF-14" target="mQCUxDyd7xYWhINcA6dF-7">
          <mxGeometry relative="1" as="geometry" />
        </mxCell>
        <mxCell id="mQCUxDyd7xYWhINcA6dF-14" value="count = count + 1" style="whiteSpace=wrap;html=1;fillColor=#d5e8d4;strokeColor=#82b366;" vertex="1" parent="WIyWlLk6GJQsqaUBKTNV-1">
          <mxGeometry x="354" y="802" width="120" height="60" as="geometry" />
        </mxCell>
        <mxCell id="mQCUxDyd7xYWhINcA6dF-18" value="return result" style="rounded=1;whiteSpace=wrap;html=1;fillColor=#d5e8d4;strokeColor=#82b366;" vertex="1" parent="WIyWlLk6GJQsqaUBKTNV-1">
          <mxGeometry x="199" y="662" width="120" height="60" as="geometry" />
        </mxCell>
        <mxCell id="mQCUxDyd7xYWhINcA6dF-20" value="&lt;h1&gt;Ejercicio 2&lt;/h1&gt;&lt;div&gt;El while (y unico condicional NO depende de la input del usuario X. Con analizar cualquier X posible vamos a pasar por las posibles lineas&lt;/div&gt;" style="text;html=1;strokeColor=none;fillColor=none;spacing=5;spacingTop=-20;whiteSpace=wrap;overflow=hidden;rounded=0;" vertex="1" parent="WIyWlLk6GJQsqaUBKTNV-1">
          <mxGeometry x="555" y="120" width="190" height="140" as="geometry" />
        </mxCell>
        <mxCell id="mQCUxDyd7xYWhINcA6dF-21" value="" style="shape=table;startSize=0;container=1;collapsible=0;childLayout=tableLayout;" vertex="1" parent="WIyWlLk6GJQsqaUBKTNV-1">
          <mxGeometry x="560" y="249" width="180" height="80" as="geometry" />
        </mxCell>
        <mxCell id="mQCUxDyd7xYWhINcA6dF-22" value="" style="shape=tableRow;horizontal=0;startSize=0;swimlaneHead=0;swimlaneBody=0;strokeColor=inherit;top=0;left=0;bottom=0;right=0;collapsible=0;dropTarget=0;fillColor=none;points=[[0,0.5],[1,0.5]];portConstraint=eastwest;" vertex="1" parent="mQCUxDyd7xYWhINcA6dF-21">
          <mxGeometry width="180" height="40" as="geometry" />
        </mxCell>
        <mxCell id="mQCUxDyd7xYWhINcA6dF-23" value="" style="shape=partialRectangle;html=1;whiteSpace=wrap;connectable=0;strokeColor=#666666;overflow=hidden;fillColor=#f5f5f5;top=0;left=0;bottom=0;right=0;pointerEvents=1;fontColor=#333333;" vertex="1" parent="mQCUxDyd7xYWhINcA6dF-22">
          <mxGeometry width="60" height="40" as="geometry">
            <mxRectangle width="60" height="40" as="alternateBounds" />
          </mxGeometry>
        </mxCell>
        <mxCell id="mQCUxDyd7xYWhINcA6dF-24" value="X" style="shape=partialRectangle;html=1;whiteSpace=wrap;connectable=0;strokeColor=#82b366;overflow=hidden;fillColor=#d5e8d4;top=0;left=0;bottom=0;right=0;pointerEvents=1;" vertex="1" parent="mQCUxDyd7xYWhINcA6dF-22">
          <mxGeometry x="60" width="60" height="40" as="geometry">
            <mxRectangle width="60" height="40" as="alternateBounds" />
          </mxGeometry>
        </mxCell>
        <mxCell id="mQCUxDyd7xYWhINcA6dF-25" value="res" style="shape=partialRectangle;html=1;whiteSpace=wrap;connectable=0;strokeColor=#82b366;overflow=hidden;fillColor=#d5e8d4;top=0;left=0;bottom=0;right=0;pointerEvents=1;" vertex="1" parent="mQCUxDyd7xYWhINcA6dF-22">
          <mxGeometry x="120" width="60" height="40" as="geometry">
            <mxRectangle width="60" height="40" as="alternateBounds" />
          </mxGeometry>
        </mxCell>
        <mxCell id="mQCUxDyd7xYWhINcA6dF-26" value="" style="shape=tableRow;horizontal=0;startSize=0;swimlaneHead=0;swimlaneBody=0;strokeColor=inherit;top=0;left=0;bottom=0;right=0;collapsible=0;dropTarget=0;fillColor=none;points=[[0,0.5],[1,0.5]];portConstraint=eastwest;" vertex="1" parent="mQCUxDyd7xYWhINcA6dF-21">
          <mxGeometry y="40" width="180" height="40" as="geometry" />
        </mxCell>
        <mxCell id="mQCUxDyd7xYWhINcA6dF-27" value="test" style="shape=partialRectangle;html=1;whiteSpace=wrap;connectable=0;strokeColor=#82b366;overflow=hidden;fillColor=#d5e8d4;top=0;left=0;bottom=0;right=0;pointerEvents=1;" vertex="1" parent="mQCUxDyd7xYWhINcA6dF-26">
          <mxGeometry width="60" height="40" as="geometry">
            <mxRectangle width="60" height="40" as="alternateBounds" />
          </mxGeometry>
        </mxCell>
        <mxCell id="mQCUxDyd7xYWhINcA6dF-28" value="1" style="shape=partialRectangle;html=1;whiteSpace=wrap;connectable=0;strokeColor=#d6b656;overflow=hidden;fillColor=#fff2cc;top=0;left=0;bottom=0;right=0;pointerEvents=1;" vertex="1" parent="mQCUxDyd7xYWhINcA6dF-26">
          <mxGeometry x="60" width="60" height="40" as="geometry">
            <mxRectangle width="60" height="40" as="alternateBounds" />
          </mxGeometry>
        </mxCell>
        <mxCell id="mQCUxDyd7xYWhINcA6dF-29" value="1" style="shape=partialRectangle;html=1;whiteSpace=wrap;connectable=0;strokeColor=#d6b656;overflow=hidden;fillColor=#fff2cc;top=0;left=0;bottom=0;right=0;pointerEvents=1;" vertex="1" parent="mQCUxDyd7xYWhINcA6dF-26">
          <mxGeometry x="120" width="60" height="40" as="geometry">
            <mxRectangle width="60" height="40" as="alternateBounds" />
          </mxGeometry>
        </mxCell>
        <mxCell id="mQCUxDyd7xYWhINcA6dF-30" value="&lt;h1&gt;Ejercicio 3&lt;/h1&gt;&lt;div&gt;Efectivamente. Todas las branches se ven atravezadas. Es solo una.&lt;/div&gt;" style="text;html=1;strokeColor=none;fillColor=none;spacing=5;spacingTop=-20;whiteSpace=wrap;overflow=hidden;rounded=0;" vertex="1" parent="WIyWlLk6GJQsqaUBKTNV-1">
          <mxGeometry x="560" y="352" width="190" height="120" as="geometry" />
        </mxCell>
      </root>
    </mxGraphModel>
  </diagram>
</mxfile>
